<?xml version="1.0" encoding="UTF-8" standalone="no"?>
<!DOCTYPE svg PUBLIC "-//W3C//DTD SVG 1.1//EN"
 "http://www.w3.org/Graphics/SVG/1.1/DTD/svg11.dtd">
<!-- Generated by graphviz version 2.42.3 (0)
 -->
<!-- Title: %3 Pages: 1 -->
<svg width="971pt" height="254pt"
 viewBox="0.00 0.00 970.99 254.46" xmlns="http://www.w3.org/2000/svg" xmlns:xlink="http://www.w3.org/1999/xlink">
<g id="graph0" class="graph" transform="scale(1 1) rotate(0) translate(4 250.46)">
<title>%3</title>
<polygon fill="white" stroke="transparent" points="-4,4 -4,-250.46 966.99,-250.46 966.99,4 -4,4"/>
<!-- 15 -->
<g id="node1" class="node">
<title>15</title>
<ellipse fill="none" stroke="black" cx="939.49" cy="-123.46" rx="19.5" ry="19.5"/>
<ellipse fill="none" stroke="black" cx="939.49" cy="-123.46" rx="23.5" ry="23.5"/>
<text text-anchor="middle" x="939.49" y="-119.76" font-family="Times,serif" font-size="14.00">15</text>
</g>
<!-- START -->
<g id="node2" class="node">
<title>START</title>
</g>
<!-- 0 -->
<g id="node3" class="node">
<title>0</title>
<ellipse fill="none" stroke="black" cx="56" cy="-106.46" rx="18" ry="18"/>
<text text-anchor="middle" x="56" y="-102.76" font-family="Times,serif" font-size="14.00">0</text>
</g>
<!-- START&#45;&gt;0 -->
<g id="edge1" class="edge">
<title>START&#45;&gt;0</title>
<path fill="none" stroke="black" d="M1.15,-106.46C2.67,-106.46 15.1,-106.46 27.63,-106.46"/>
<polygon fill="black" stroke="black" points="27.94,-109.96 37.94,-106.46 27.94,-102.96 27.94,-109.96"/>
</g>
<!-- 1 -->
<g id="node4" class="node">
<title>1</title>
<ellipse fill="none" stroke="black" cx="135" cy="-151.46" rx="18" ry="18"/>
<text text-anchor="middle" x="135" y="-147.76" font-family="Times,serif" font-size="14.00">1</text>
</g>
<!-- 0&#45;&gt;1 -->
<g id="edge2" class="edge">
<title>0&#45;&gt;1</title>
<path fill="none" stroke="black" d="M71.85,-115.14C82.71,-121.49 97.68,-130.24 110.21,-137.56"/>
<polygon fill="black" stroke="black" points="108.8,-140.79 119.2,-142.81 112.33,-134.75 108.8,-140.79"/>
<text text-anchor="middle" x="95.5" y="-134.26" font-family="Times,serif" font-size="14.00">Ɛ</text>
</g>
<!-- 7 -->
<g id="node8" class="node">
<title>7</title>
<ellipse fill="none" stroke="black" cx="451" cy="-106.46" rx="18" ry="18"/>
<text text-anchor="middle" x="451" y="-102.76" font-family="Times,serif" font-size="14.00">7</text>
</g>
<!-- 0&#45;&gt;7 -->
<g id="edge10" class="edge">
<title>0&#45;&gt;7</title>
<path fill="none" stroke="black" d="M73.32,-101.05C88.77,-96.4 112.7,-90.46 134,-90.46 134,-90.46 134,-90.46 373,-90.46 390.14,-90.46 408.98,-94.31 423.74,-98.23"/>
<polygon fill="black" stroke="black" points="423.11,-101.69 433.68,-101.05 425.01,-94.95 423.11,-101.69"/>
<text text-anchor="middle" x="253.5" y="-94.26" font-family="Times,serif" font-size="14.00">Ɛ</text>
</g>
<!-- 2 -->
<g id="node5" class="node">
<title>2</title>
<ellipse fill="none" stroke="black" cx="214" cy="-228.46" rx="18" ry="18"/>
<text text-anchor="middle" x="214" y="-224.76" font-family="Times,serif" font-size="14.00">2</text>
</g>
<!-- 1&#45;&gt;2 -->
<g id="edge3" class="edge">
<title>1&#45;&gt;2</title>
<path fill="none" stroke="black" d="M148.37,-163.83C160.5,-175.96 179.16,-194.63 193.33,-208.79"/>
<polygon fill="black" stroke="black" points="191.11,-211.53 200.66,-216.12 196.06,-206.58 191.11,-211.53"/>
<text text-anchor="middle" x="174.5" y="-195.26" font-family="Times,serif" font-size="14.00">Ɛ</text>
</g>
<!-- 3 -->
<g id="node14" class="node">
<title>3</title>
<ellipse fill="none" stroke="black" cx="214" cy="-174.46" rx="18" ry="18"/>
<text text-anchor="middle" x="214" y="-170.76" font-family="Times,serif" font-size="14.00">3</text>
</g>
<!-- 1&#45;&gt;3 -->
<g id="edge11" class="edge">
<title>1&#45;&gt;3</title>
<path fill="none" stroke="black" d="M152.33,-156.34C162.27,-159.31 175.19,-163.17 186.56,-166.56"/>
<polygon fill="black" stroke="black" points="185.84,-170 196.43,-169.51 187.85,-163.3 185.84,-170"/>
<text text-anchor="middle" x="174.5" y="-167.26" font-family="Times,serif" font-size="14.00">Ɛ</text>
</g>
<!-- 4 -->
<g id="node6" class="node">
<title>4</title>
<ellipse fill="none" stroke="black" cx="293" cy="-228.46" rx="18" ry="18"/>
<text text-anchor="middle" x="293" y="-224.76" font-family="Times,serif" font-size="14.00">4</text>
</g>
<!-- 2&#45;&gt;4 -->
<g id="edge18" class="edge">
<title>2&#45;&gt;4</title>
<path fill="none" stroke="black" d="M232.09,-228.46C241.66,-228.46 253.82,-228.46 264.68,-228.46"/>
<polygon fill="black" stroke="black" points="264.96,-231.96 274.96,-228.46 264.96,-224.96 264.96,-231.96"/>
<text text-anchor="middle" x="253.5" y="-232.26" font-family="Times,serif" font-size="14.00">b</text>
</g>
<!-- 6 -->
<g id="node7" class="node">
<title>6</title>
<ellipse fill="none" stroke="black" cx="372" cy="-148.46" rx="18" ry="18"/>
<text text-anchor="middle" x="372" y="-144.76" font-family="Times,serif" font-size="14.00">6</text>
</g>
<!-- 4&#45;&gt;6 -->
<g id="edge4" class="edge">
<title>4&#45;&gt;6</title>
<path fill="none" stroke="black" d="M306.03,-215.96C318.28,-203.24 337.45,-183.32 351.8,-168.41"/>
<polygon fill="black" stroke="black" points="354.39,-170.77 358.8,-161.14 349.34,-165.92 354.39,-170.77"/>
<text text-anchor="middle" x="332.5" y="-194.26" font-family="Times,serif" font-size="14.00">Ɛ</text>
</g>
<!-- 6&#45;&gt;1 -->
<g id="edge16" class="edge">
<title>6&#45;&gt;1</title>
<path fill="none" stroke="black" d="M353.61,-147.91C322.15,-147.02 253.69,-145.54 196,-147.46 185.24,-147.82 173.4,-148.54 163.11,-149.27"/>
<polygon fill="black" stroke="black" points="162.77,-145.79 153.05,-150.02 163.29,-152.77 162.77,-145.79"/>
<text text-anchor="middle" x="253.5" y="-151.26" font-family="Times,serif" font-size="14.00">Ɛ</text>
</g>
<!-- 6&#45;&gt;7 -->
<g id="edge5" class="edge">
<title>6&#45;&gt;7</title>
<path fill="none" stroke="black" d="M388.21,-140.16C398.97,-134.3 413.61,-126.31 425.94,-119.58"/>
<polygon fill="black" stroke="black" points="427.72,-122.6 434.82,-114.74 424.36,-116.46 427.72,-122.6"/>
<text text-anchor="middle" x="411.5" y="-133.26" font-family="Times,serif" font-size="14.00">Ɛ</text>
</g>
<!-- 8 -->
<g id="node9" class="node">
<title>8</title>
<ellipse fill="none" stroke="black" cx="530" cy="-106.46" rx="18" ry="18"/>
<text text-anchor="middle" x="530" y="-102.76" font-family="Times,serif" font-size="14.00">8</text>
</g>
<!-- 7&#45;&gt;8 -->
<g id="edge19" class="edge">
<title>7&#45;&gt;8</title>
<path fill="none" stroke="black" d="M469.09,-106.46C478.66,-106.46 490.82,-106.46 501.68,-106.46"/>
<polygon fill="black" stroke="black" points="501.96,-109.96 511.96,-106.46 501.96,-102.96 501.96,-109.96"/>
<text text-anchor="middle" x="490.5" y="-110.26" font-family="Times,serif" font-size="14.00">a</text>
</g>
<!-- 8&#45;&gt;15 -->
<g id="edge13" class="edge">
<title>8&#45;&gt;15</title>
<path fill="none" stroke="black" d="M543.85,-118.03C558.34,-129.85 583.14,-146.46 608,-146.46 608,-146.46 608,-146.46 854.49,-146.46 872.6,-146.46 892.15,-141.43 907.83,-136.07"/>
<polygon fill="black" stroke="black" points="909.31,-139.26 917.52,-132.55 906.92,-132.68 909.31,-139.26"/>
<text text-anchor="middle" x="730.5" y="-150.26" font-family="Times,serif" font-size="14.00">Ɛ</text>
</g>
<!-- 9 -->
<g id="node10" class="node">
<title>9</title>
<ellipse fill="none" stroke="black" cx="609" cy="-66.46" rx="18" ry="18"/>
<text text-anchor="middle" x="609" y="-62.76" font-family="Times,serif" font-size="14.00">9</text>
</g>
<!-- 8&#45;&gt;9 -->
<g id="edge6" class="edge">
<title>8&#45;&gt;9</title>
<path fill="none" stroke="black" d="M546.21,-98.56C556.97,-92.97 571.61,-85.37 583.94,-78.96"/>
<polygon fill="black" stroke="black" points="585.56,-82.06 592.82,-74.35 582.33,-75.85 585.56,-82.06"/>
<text text-anchor="middle" x="569.5" y="-92.26" font-family="Times,serif" font-size="14.00">Ɛ</text>
</g>
<!-- 10 -->
<g id="node11" class="node">
<title>10</title>
<ellipse fill="none" stroke="black" cx="689.5" cy="-99.46" rx="19.5" ry="19.5"/>
<text text-anchor="middle" x="689.5" y="-95.76" font-family="Times,serif" font-size="14.00">10</text>
</g>
<!-- 9&#45;&gt;10 -->
<g id="edge7" class="edge">
<title>9&#45;&gt;10</title>
<path fill="none" stroke="black" d="M625.89,-73.14C636.18,-77.47 649.83,-83.21 661.77,-88.23"/>
<polygon fill="black" stroke="black" points="660.7,-91.57 671.27,-92.22 663.41,-85.12 660.7,-91.57"/>
<text text-anchor="middle" x="648.5" y="-88.26" font-family="Times,serif" font-size="14.00">Ɛ</text>
</g>
<!-- 11 -->
<g id="node16" class="node">
<title>11</title>
<ellipse fill="none" stroke="black" cx="689.5" cy="-42.46" rx="19.5" ry="19.5"/>
<text text-anchor="middle" x="689.5" y="-38.76" font-family="Times,serif" font-size="14.00">11</text>
</g>
<!-- 9&#45;&gt;11 -->
<g id="edge14" class="edge">
<title>9&#45;&gt;11</title>
<path fill="none" stroke="black" d="M625.91,-60.14C631.85,-57.89 638.69,-55.43 645,-53.46 649.86,-51.95 655.07,-50.49 660.14,-49.16"/>
<polygon fill="black" stroke="black" points="661.33,-52.47 670.17,-46.63 659.62,-45.68 661.33,-52.47"/>
<text text-anchor="middle" x="648.5" y="-57.26" font-family="Times,serif" font-size="14.00">Ɛ</text>
</g>
<!-- 12 -->
<g id="node12" class="node">
<title>12</title>
<ellipse fill="none" stroke="black" cx="771.49" cy="-99.46" rx="19.5" ry="19.5"/>
<text text-anchor="middle" x="771.49" y="-95.76" font-family="Times,serif" font-size="14.00">12</text>
</g>
<!-- 10&#45;&gt;12 -->
<g id="edge20" class="edge">
<title>10&#45;&gt;12</title>
<path fill="none" stroke="black" d="M709.05,-99.46C718.68,-99.46 730.65,-99.46 741.47,-99.46"/>
<polygon fill="black" stroke="black" points="741.76,-102.96 751.76,-99.46 741.76,-95.96 741.76,-102.96"/>
<text text-anchor="middle" x="730.5" y="-103.26" font-family="Times,serif" font-size="14.00">a</text>
</g>
<!-- 14 -->
<g id="node13" class="node">
<title>14</title>
<ellipse fill="none" stroke="black" cx="853.49" cy="-71.46" rx="19.5" ry="19.5"/>
<text text-anchor="middle" x="853.49" y="-67.76" font-family="Times,serif" font-size="14.00">14</text>
</g>
<!-- 12&#45;&gt;14 -->
<g id="edge8" class="edge">
<title>12&#45;&gt;14</title>
<path fill="none" stroke="black" d="M790.25,-93.25C800.5,-89.66 813.61,-85.07 825.16,-81.03"/>
<polygon fill="black" stroke="black" points="826.5,-84.27 834.79,-77.66 824.19,-77.66 826.5,-84.27"/>
<text text-anchor="middle" x="812.49" y="-90.26" font-family="Times,serif" font-size="14.00">Ɛ</text>
</g>
<!-- 14&#45;&gt;15 -->
<g id="edge9" class="edge">
<title>14&#45;&gt;15</title>
<path fill="none" stroke="black" d="M870.69,-81.49C881.92,-88.44 897.17,-97.89 910.37,-106.05"/>
<polygon fill="black" stroke="black" points="908.75,-109.17 919.1,-111.46 912.44,-103.22 908.75,-109.17"/>
<text text-anchor="middle" x="894.49" y="-101.26" font-family="Times,serif" font-size="14.00">Ɛ</text>
</g>
<!-- 14&#45;&gt;9 -->
<g id="edge17" class="edge">
<title>14&#45;&gt;9</title>
<path fill="none" stroke="black" d="M841.35,-55.96C830.35,-42.11 812.14,-22.75 790.99,-14.46 740.93,5.17 720.38,4.33 670,-14.46 653.63,-20.57 638.76,-33.38 627.92,-44.75"/>
<polygon fill="black" stroke="black" points="625.21,-42.54 621.09,-52.3 630.4,-47.23 625.21,-42.54"/>
<text text-anchor="middle" x="730.5" y="-4.26" font-family="Times,serif" font-size="14.00">Ɛ</text>
</g>
<!-- 5 -->
<g id="node15" class="node">
<title>5</title>
<ellipse fill="none" stroke="black" cx="293" cy="-174.46" rx="18" ry="18"/>
<text text-anchor="middle" x="293" y="-170.76" font-family="Times,serif" font-size="14.00">5</text>
</g>
<!-- 3&#45;&gt;5 -->
<g id="edge21" class="edge">
<title>3&#45;&gt;5</title>
<path fill="none" stroke="black" d="M232.09,-174.46C241.66,-174.46 253.82,-174.46 264.68,-174.46"/>
<polygon fill="black" stroke="black" points="264.96,-177.96 274.96,-174.46 264.96,-170.96 264.96,-177.96"/>
<text text-anchor="middle" x="253.5" y="-178.26" font-family="Times,serif" font-size="14.00">c</text>
</g>
<!-- 5&#45;&gt;6 -->
<g id="edge12" class="edge">
<title>5&#45;&gt;6</title>
<path fill="none" stroke="black" d="M310.33,-168.95C320.44,-165.54 333.64,-161.08 345.14,-157.19"/>
<polygon fill="black" stroke="black" points="346.34,-160.48 354.69,-153.97 344.1,-153.85 346.34,-160.48"/>
<text text-anchor="middle" x="332.5" y="-166.26" font-family="Times,serif" font-size="14.00">Ɛ</text>
</g>
<!-- 13 -->
<g id="node17" class="node">
<title>13</title>
<ellipse fill="none" stroke="black" cx="771.49" cy="-42.46" rx="19.5" ry="19.5"/>
<text text-anchor="middle" x="771.49" y="-38.76" font-family="Times,serif" font-size="14.00">13</text>
</g>
<!-- 11&#45;&gt;13 -->
<g id="edge22" class="edge">
<title>11&#45;&gt;13</title>
<path fill="none" stroke="black" d="M709.05,-42.46C718.68,-42.46 730.65,-42.46 741.47,-42.46"/>
<polygon fill="black" stroke="black" points="741.76,-45.96 751.76,-42.46 741.76,-38.96 741.76,-45.96"/>
<text text-anchor="middle" x="730.5" y="-46.26" font-family="Times,serif" font-size="14.00">c</text>
</g>
<!-- 13&#45;&gt;14 -->
<g id="edge15" class="edge">
<title>13&#45;&gt;14</title>
<path fill="none" stroke="black" d="M790.25,-48.9C800.5,-52.62 813.61,-57.37 825.16,-61.55"/>
<polygon fill="black" stroke="black" points="824.19,-64.93 834.79,-65.04 826.58,-58.35 824.19,-64.93"/>
<text text-anchor="middle" x="812.49" y="-62.26" font-family="Times,serif" font-size="14.00">Ɛ</text>
</g>
</g>
</svg>
