<?xml version="1.0" encoding="UTF-8" standalone="no"?>
<!DOCTYPE svg PUBLIC "-//W3C//DTD SVG 1.1//EN"
 "http://www.w3.org/Graphics/SVG/1.1/DTD/svg11.dtd">
<!-- Generated by graphviz version 2.42.3 (0)
 -->
<!-- Title: %3 Pages: 1 -->
<svg width="983pt" height="310pt"
 viewBox="0.00 0.00 982.97 310.00" xmlns="http://www.w3.org/2000/svg" xmlns:xlink="http://www.w3.org/1999/xlink">
<g id="graph0" class="graph" transform="scale(1 1) rotate(0) translate(4 306)">
<title>%3</title>
<polygon fill="white" stroke="transparent" points="-4,4 -4,-306 978.97,-306 978.97,4 -4,4"/>
<!-- 19 -->
<g id="node1" class="node">
<title>19</title>
<ellipse fill="none" stroke="black" cx="951.47" cy="-191" rx="19.5" ry="19.5"/>
<ellipse fill="none" stroke="black" cx="951.47" cy="-191" rx="23.5" ry="23.5"/>
<text text-anchor="middle" x="951.47" y="-187.3" font-family="Times,serif" font-size="14.00">19</text>
</g>
<!-- START -->
<g id="node2" class="node">
<title>START</title>
</g>
<!-- 0 -->
<g id="node3" class="node">
<title>0</title>
<ellipse fill="none" stroke="black" cx="56" cy="-165" rx="18" ry="18"/>
<text text-anchor="middle" x="56" y="-161.3" font-family="Times,serif" font-size="14.00">0</text>
</g>
<!-- START&#45;&gt;0 -->
<g id="edge1" class="edge">
<title>START&#45;&gt;0</title>
<path fill="none" stroke="black" d="M1.15,-165C2.67,-165 15.1,-165 27.63,-165"/>
<polygon fill="black" stroke="black" points="27.94,-168.5 37.94,-165 27.94,-161.5 27.94,-168.5"/>
</g>
<!-- 1 -->
<g id="node4" class="node">
<title>1</title>
<ellipse fill="none" stroke="black" cx="135" cy="-228" rx="18" ry="18"/>
<text text-anchor="middle" x="135" y="-224.3" font-family="Times,serif" font-size="14.00">1</text>
</g>
<!-- 0&#45;&gt;1 -->
<g id="edge2" class="edge">
<title>0&#45;&gt;1</title>
<path fill="none" stroke="black" d="M70.41,-175.97C82.04,-185.49 99.09,-199.44 112.6,-210.49"/>
<polygon fill="black" stroke="black" points="110.53,-213.32 120.48,-216.94 114.96,-207.9 110.53,-213.32"/>
<text text-anchor="middle" x="95.5" y="-202.8" font-family="Times,serif" font-size="14.00">Ɛ</text>
</g>
<!-- 2 -->
<g id="node5" class="node">
<title>2</title>
<ellipse fill="none" stroke="black" cx="135" cy="-94" rx="18" ry="18"/>
<text text-anchor="middle" x="135" y="-90.3" font-family="Times,serif" font-size="14.00">2</text>
</g>
<!-- 0&#45;&gt;2 -->
<g id="edge3" class="edge">
<title>0&#45;&gt;2</title>
<path fill="none" stroke="black" d="M69.71,-153.28C81.64,-142.28 99.68,-125.65 113.61,-112.8"/>
<polygon fill="black" stroke="black" points="116.29,-115.09 121.27,-105.74 111.54,-109.95 116.29,-115.09"/>
<text text-anchor="middle" x="95.5" y="-135.8" font-family="Times,serif" font-size="14.00">Ɛ</text>
</g>
<!-- 3 -->
<g id="node6" class="node">
<title>3</title>
<ellipse fill="none" stroke="black" cx="214" cy="-274" rx="18" ry="18"/>
<text text-anchor="middle" x="214" y="-270.3" font-family="Times,serif" font-size="14.00">3</text>
</g>
<!-- 1&#45;&gt;3 -->
<g id="edge4" class="edge">
<title>1&#45;&gt;3</title>
<path fill="none" stroke="black" d="M150.85,-236.87C161.82,-243.42 176.97,-252.48 189.57,-260.01"/>
<polygon fill="black" stroke="black" points="187.82,-263.03 198.2,-265.16 191.41,-257.02 187.82,-263.03"/>
<text text-anchor="middle" x="174.5" y="-256.8" font-family="Times,serif" font-size="14.00">Ɛ</text>
</g>
<!-- 8 -->
<g id="node7" class="node">
<title>8</title>
<ellipse fill="none" stroke="black" cx="373.5" cy="-251" rx="18" ry="18"/>
<text text-anchor="middle" x="373.5" y="-247.3" font-family="Times,serif" font-size="14.00">8</text>
</g>
<!-- 1&#45;&gt;8 -->
<g id="edge5" class="edge">
<title>1&#45;&gt;8</title>
<path fill="none" stroke="black" d="M153.01,-229.65C193.48,-233.59 295.79,-243.54 345.1,-248.34"/>
<polygon fill="black" stroke="black" points="345.03,-251.85 355.33,-249.33 345.71,-244.88 345.03,-251.85"/>
<text text-anchor="middle" x="253.5" y="-243.8" font-family="Times,serif" font-size="14.00">Ɛ</text>
</g>
<!-- 4 -->
<g id="node8" class="node">
<title>4</title>
<ellipse fill="none" stroke="black" cx="214" cy="-94" rx="18" ry="18"/>
<text text-anchor="middle" x="214" y="-90.3" font-family="Times,serif" font-size="14.00">4</text>
</g>
<!-- 2&#45;&gt;4 -->
<g id="edge6" class="edge">
<title>2&#45;&gt;4</title>
<path fill="none" stroke="black" d="M153.09,-94C162.66,-94 174.82,-94 185.68,-94"/>
<polygon fill="black" stroke="black" points="185.96,-97.5 195.96,-94 185.96,-90.5 185.96,-97.5"/>
<text text-anchor="middle" x="174.5" y="-97.8" font-family="Times,serif" font-size="14.00">Ɛ</text>
</g>
<!-- 16 -->
<g id="node9" class="node">
<title>16</title>
<ellipse fill="none" stroke="black" cx="701.48" cy="-130" rx="19.5" ry="19.5"/>
<text text-anchor="middle" x="701.48" y="-126.3" font-family="Times,serif" font-size="14.00">16</text>
</g>
<!-- 2&#45;&gt;16 -->
<g id="edge7" class="edge">
<title>2&#45;&gt;16</title>
<path fill="none" stroke="black" d="M141.32,-76.76C150.89,-49.62 173.76,0 213,0 213,0 213,0 620.49,0 667.48,0 687.75,-62.38 695.78,-100.71"/>
<polygon fill="black" stroke="black" points="692.4,-101.66 697.73,-110.82 699.27,-100.34 692.4,-101.66"/>
<text text-anchor="middle" x="414.5" y="-3.8" font-family="Times,serif" font-size="14.00">Ɛ</text>
</g>
<!-- 5 -->
<g id="node10" class="node">
<title>5</title>
<ellipse fill="none" stroke="black" cx="293" cy="-274" rx="18" ry="18"/>
<text text-anchor="middle" x="293" y="-270.3" font-family="Times,serif" font-size="14.00">5</text>
</g>
<!-- 3&#45;&gt;5 -->
<g id="edge8" class="edge">
<title>3&#45;&gt;5</title>
<path fill="none" stroke="black" d="M230.37,-281.83C238.23,-284.95 248.02,-287.5 257,-286 260.13,-285.48 263.36,-284.71 266.52,-283.81"/>
<polygon fill="black" stroke="black" points="267.84,-287.07 276.26,-280.63 265.67,-280.41 267.84,-287.07"/>
<text text-anchor="middle" x="253.5" y="-290.8" font-family="Times,serif" font-size="14.00">c</text>
</g>
<!-- 8&#45;&gt;19 -->
<g id="edge16" class="edge">
<title>8&#45;&gt;19</title>
<path fill="none" stroke="black" d="M391.28,-247.67C407.41,-244.76 432.52,-241 454.49,-241 454.49,-241 454.49,-241 866.48,-241 889.17,-241 911.07,-227.36 926.81,-214.33"/>
<polygon fill="black" stroke="black" points="929.23,-216.87 934.46,-207.65 924.63,-211.6 929.23,-216.87"/>
<text text-anchor="middle" x="660.49" y="-244.8" font-family="Times,serif" font-size="14.00">Ɛ</text>
</g>
<!-- 6 -->
<g id="node11" class="node">
<title>6</title>
<ellipse fill="none" stroke="black" cx="293" cy="-160" rx="18" ry="18"/>
<text text-anchor="middle" x="293" y="-156.3" font-family="Times,serif" font-size="14.00">6</text>
</g>
<!-- 4&#45;&gt;6 -->
<g id="edge9" class="edge">
<title>4&#45;&gt;6</title>
<path fill="none" stroke="black" d="M228.41,-105.5C240.12,-115.53 257.3,-130.26 270.85,-141.87"/>
<polygon fill="black" stroke="black" points="268.87,-144.78 278.74,-148.64 273.43,-139.47 268.87,-144.78"/>
<text text-anchor="middle" x="253.5" y="-132.8" font-family="Times,serif" font-size="14.00">Ɛ</text>
</g>
<!-- 7 -->
<g id="node12" class="node">
<title>7</title>
<ellipse fill="none" stroke="black" cx="293" cy="-94" rx="18" ry="18"/>
<text text-anchor="middle" x="293" y="-90.3" font-family="Times,serif" font-size="14.00">7</text>
</g>
<!-- 4&#45;&gt;7 -->
<g id="edge10" class="edge">
<title>4&#45;&gt;7</title>
<path fill="none" stroke="black" d="M232.09,-94C241.66,-94 253.82,-94 264.68,-94"/>
<polygon fill="black" stroke="black" points="264.96,-97.5 274.96,-94 264.96,-90.5 264.96,-97.5"/>
<text text-anchor="middle" x="253.5" y="-97.8" font-family="Times,serif" font-size="14.00">Ɛ</text>
</g>
<!-- 16&#45;&gt;19 -->
<g id="edge27" class="edge">
<title>16&#45;&gt;19</title>
<path fill="none" stroke="black" d="M718.89,-139.3C730.97,-145.68 748,-153.74 763.98,-158 817.05,-172.14 880.25,-181.87 917.77,-186.93"/>
<polygon fill="black" stroke="black" points="917.73,-190.46 928.1,-188.3 918.65,-183.52 917.73,-190.46"/>
<text text-anchor="middle" x="824.48" y="-176.8" font-family="Times,serif" font-size="14.00">Ɛ</text>
</g>
<!-- 17 -->
<g id="node20" class="node">
<title>17</title>
<ellipse fill="none" stroke="black" cx="783.48" cy="-130" rx="19.5" ry="19.5"/>
<text text-anchor="middle" x="783.48" y="-126.3" font-family="Times,serif" font-size="14.00">17</text>
</g>
<!-- 16&#45;&gt;17 -->
<g id="edge26" class="edge">
<title>16&#45;&gt;17</title>
<path fill="none" stroke="black" d="M721.04,-130C730.66,-130 742.64,-130 753.45,-130"/>
<polygon fill="black" stroke="black" points="753.75,-133.5 763.75,-130 753.75,-126.5 753.75,-133.5"/>
<text text-anchor="middle" x="742.48" y="-133.8" font-family="Times,serif" font-size="14.00">Ɛ</text>
</g>
<!-- 5&#45;&gt;3 -->
<g id="edge12" class="edge">
<title>5&#45;&gt;3</title>
<path fill="none" stroke="black" d="M275.31,-269.16C267.63,-267.47 258.39,-266.17 250,-267 247.26,-267.27 244.42,-267.66 241.59,-268.11"/>
<polygon fill="black" stroke="black" points="240.82,-264.7 231.63,-269.98 242.11,-271.58 240.82,-264.7"/>
<text text-anchor="middle" x="253.5" y="-270.8" font-family="Times,serif" font-size="14.00">Ɛ</text>
</g>
<!-- 5&#45;&gt;8 -->
<g id="edge11" class="edge">
<title>5&#45;&gt;8</title>
<path fill="none" stroke="black" d="M310.65,-269.12C321.02,-266.08 334.59,-262.11 346.37,-258.65"/>
<polygon fill="black" stroke="black" points="347.53,-261.96 356.14,-255.79 345.56,-255.24 347.53,-261.96"/>
<text text-anchor="middle" x="332.5" y="-267.8" font-family="Times,serif" font-size="14.00">Ɛ</text>
</g>
<!-- 9 -->
<g id="node13" class="node">
<title>9</title>
<ellipse fill="none" stroke="black" cx="373.5" cy="-197" rx="18" ry="18"/>
<text text-anchor="middle" x="373.5" y="-193.3" font-family="Times,serif" font-size="14.00">9</text>
</g>
<!-- 6&#45;&gt;9 -->
<g id="edge13" class="edge">
<title>6&#45;&gt;9</title>
<path fill="none" stroke="black" d="M309.51,-167.31C320.48,-172.48 335.4,-179.51 347.97,-185.44"/>
<polygon fill="black" stroke="black" points="346.48,-188.61 357.02,-189.71 349.47,-182.28 346.48,-188.61"/>
<text text-anchor="middle" x="332.5" y="-183.8" font-family="Times,serif" font-size="14.00">a</text>
</g>
<!-- 10 -->
<g id="node14" class="node">
<title>10</title>
<ellipse fill="none" stroke="black" cx="373.5" cy="-142" rx="19.5" ry="19.5"/>
<text text-anchor="middle" x="373.5" y="-138.3" font-family="Times,serif" font-size="14.00">10</text>
</g>
<!-- 7&#45;&gt;10 -->
<g id="edge14" class="edge">
<title>7&#45;&gt;10</title>
<path fill="none" stroke="black" d="M308.76,-103.03C319.7,-109.72 334.86,-118.98 347.65,-126.8"/>
<polygon fill="black" stroke="black" points="346.09,-129.96 356.45,-132.19 349.74,-123.98 346.09,-129.96"/>
<text text-anchor="middle" x="332.5" y="-123.8" font-family="Times,serif" font-size="14.00">Ɛ</text>
</g>
<!-- 11 -->
<g id="node15" class="node">
<title>11</title>
<ellipse fill="none" stroke="black" cx="373.5" cy="-85" rx="19.5" ry="19.5"/>
<text text-anchor="middle" x="373.5" y="-81.3" font-family="Times,serif" font-size="14.00">11</text>
</g>
<!-- 7&#45;&gt;11 -->
<g id="edge15" class="edge">
<title>7&#45;&gt;11</title>
<path fill="none" stroke="black" d="M310.57,-88.83C316.34,-87.27 322.9,-85.77 329,-85 333.68,-84.41 338.66,-84.11 343.52,-83.98"/>
<polygon fill="black" stroke="black" points="343.81,-87.48 353.81,-83.97 343.8,-80.48 343.81,-87.48"/>
<text text-anchor="middle" x="332.5" y="-88.8" font-family="Times,serif" font-size="14.00">Ɛ</text>
</g>
<!-- 9&#45;&gt;6 -->
<g id="edge17" class="edge">
<title>9&#45;&gt;6</title>
<path fill="none" stroke="black" d="M362.92,-182.22C356.46,-173.69 347.11,-163.73 336,-159 331.38,-157.03 326.2,-156.19 321.11,-156.02"/>
<polygon fill="black" stroke="black" points="320.8,-152.53 310.96,-156.45 321.1,-159.53 320.8,-152.53"/>
<text text-anchor="middle" x="332.5" y="-162.8" font-family="Times,serif" font-size="14.00">Ɛ</text>
</g>
<!-- 15 -->
<g id="node16" class="node">
<title>15</title>
<ellipse fill="none" stroke="black" cx="619.49" cy="-130" rx="19.5" ry="19.5"/>
<text text-anchor="middle" x="619.49" y="-126.3" font-family="Times,serif" font-size="14.00">15</text>
</g>
<!-- 9&#45;&gt;15 -->
<g id="edge18" class="edge">
<title>9&#45;&gt;15</title>
<path fill="none" stroke="black" d="M391.29,-194.19C423.67,-188.61 496.86,-175.16 556.99,-158 568.35,-154.76 571.17,-153.74 581.99,-149 585.54,-147.45 589.22,-145.7 592.81,-143.91"/>
<polygon fill="black" stroke="black" points="594.71,-146.87 602,-139.18 591.51,-140.65 594.71,-146.87"/>
<text text-anchor="middle" x="496.49" y="-177.8" font-family="Times,serif" font-size="14.00">Ɛ</text>
</g>
<!-- 12 -->
<g id="node17" class="node">
<title>12</title>
<ellipse fill="none" stroke="black" cx="455.49" cy="-142" rx="19.5" ry="19.5"/>
<text text-anchor="middle" x="455.49" y="-138.3" font-family="Times,serif" font-size="14.00">12</text>
</g>
<!-- 10&#45;&gt;12 -->
<g id="edge19" class="edge">
<title>10&#45;&gt;12</title>
<path fill="none" stroke="black" d="M393.05,-142C402.68,-142 414.65,-142 425.47,-142"/>
<polygon fill="black" stroke="black" points="425.76,-145.5 435.76,-142 425.76,-138.5 425.76,-145.5"/>
<text text-anchor="middle" x="414.5" y="-145.8" font-family="Times,serif" font-size="14.00">b</text>
</g>
<!-- 13 -->
<g id="node18" class="node">
<title>13</title>
<ellipse fill="none" stroke="black" cx="455.49" cy="-85" rx="19.5" ry="19.5"/>
<text text-anchor="middle" x="455.49" y="-81.3" font-family="Times,serif" font-size="14.00">13</text>
</g>
<!-- 11&#45;&gt;13 -->
<g id="edge20" class="edge">
<title>11&#45;&gt;13</title>
<path fill="none" stroke="black" d="M393.05,-85C402.68,-85 414.65,-85 425.47,-85"/>
<polygon fill="black" stroke="black" points="425.76,-88.5 435.76,-85 425.76,-81.5 425.76,-88.5"/>
<text text-anchor="middle" x="414.5" y="-88.8" font-family="Times,serif" font-size="14.00">c</text>
</g>
<!-- 15&#45;&gt;4 -->
<g id="edge24" class="edge">
<title>15&#45;&gt;4</title>
<path fill="none" stroke="black" d="M612.13,-111.82C601.46,-85.01 577.22,-38 538.49,-38 292,-38 292,-38 292,-38 267.79,-38 246.08,-56.33 231.93,-72.02"/>
<polygon fill="black" stroke="black" points="229.06,-69.99 225.25,-79.87 234.39,-74.52 229.06,-69.99"/>
<text text-anchor="middle" x="414.5" y="-41.8" font-family="Times,serif" font-size="14.00">Ɛ</text>
</g>
<!-- 15&#45;&gt;16 -->
<g id="edge25" class="edge">
<title>15&#45;&gt;16</title>
<path fill="none" stroke="black" d="M639.04,-130C648.67,-130 660.64,-130 671.46,-130"/>
<polygon fill="black" stroke="black" points="671.75,-133.5 681.75,-130 671.75,-126.5 671.75,-133.5"/>
<text text-anchor="middle" x="660.49" y="-133.8" font-family="Times,serif" font-size="14.00">Ɛ</text>
</g>
<!-- 14 -->
<g id="node19" class="node">
<title>14</title>
<ellipse fill="none" stroke="black" cx="537.49" cy="-130" rx="19.5" ry="19.5"/>
<text text-anchor="middle" x="537.49" y="-126.3" font-family="Times,serif" font-size="14.00">14</text>
</g>
<!-- 12&#45;&gt;14 -->
<g id="edge21" class="edge">
<title>12&#45;&gt;14</title>
<path fill="none" stroke="black" d="M475.05,-139.22C484.84,-137.75 497.07,-135.91 508.04,-134.27"/>
<polygon fill="black" stroke="black" points="508.67,-137.71 518.04,-132.77 507.63,-130.79 508.67,-137.71"/>
<text text-anchor="middle" x="496.49" y="-140.8" font-family="Times,serif" font-size="14.00">Ɛ</text>
</g>
<!-- 13&#45;&gt;14 -->
<g id="edge22" class="edge">
<title>13&#45;&gt;14</title>
<path fill="none" stroke="black" d="M473.07,-94.32C484.08,-100.52 498.76,-108.77 511.21,-115.78"/>
<polygon fill="black" stroke="black" points="509.78,-118.99 520.21,-120.84 513.21,-112.89 509.78,-118.99"/>
<text text-anchor="middle" x="496.49" y="-112.8" font-family="Times,serif" font-size="14.00">Ɛ</text>
</g>
<!-- 14&#45;&gt;15 -->
<g id="edge23" class="edge">
<title>14&#45;&gt;15</title>
<path fill="none" stroke="black" d="M557.05,-130C566.67,-130 578.64,-130 589.46,-130"/>
<polygon fill="black" stroke="black" points="589.76,-133.5 599.76,-130 589.76,-126.5 589.76,-133.5"/>
<text text-anchor="middle" x="578.49" y="-133.8" font-family="Times,serif" font-size="14.00">Ɛ</text>
</g>
<!-- 18 -->
<g id="node21" class="node">
<title>18</title>
<ellipse fill="none" stroke="black" cx="865.48" cy="-144" rx="19.5" ry="19.5"/>
<text text-anchor="middle" x="865.48" y="-140.3" font-family="Times,serif" font-size="14.00">18</text>
</g>
<!-- 17&#45;&gt;18 -->
<g id="edge28" class="edge">
<title>17&#45;&gt;18</title>
<path fill="none" stroke="black" d="M803.03,-133.25C812.83,-134.96 825.06,-137.1 836.02,-139.02"/>
<polygon fill="black" stroke="black" points="835.57,-142.49 846.02,-140.77 836.78,-135.6 835.57,-142.49"/>
<text text-anchor="middle" x="824.48" y="-141.8" font-family="Times,serif" font-size="14.00">b</text>
</g>
<!-- 18&#45;&gt;19 -->
<g id="edge30" class="edge">
<title>18&#45;&gt;19</title>
<path fill="none" stroke="black" d="M884.26,-150.3C892.31,-153.41 901.83,-157.48 909.98,-162 914.67,-164.61 919.48,-167.66 924.06,-170.79"/>
<polygon fill="black" stroke="black" points="922.33,-173.85 932.51,-176.79 926.39,-168.15 922.33,-173.85"/>
<text text-anchor="middle" x="906.48" y="-165.8" font-family="Times,serif" font-size="14.00">Ɛ</text>
</g>
<!-- 18&#45;&gt;17 -->
<g id="edge29" class="edge">
<title>18&#45;&gt;17</title>
<path fill="none" stroke="black" d="M850.7,-131.09C844.3,-125.96 836.28,-120.65 827.98,-118 822.48,-116.24 816.53,-116.49 810.86,-117.74"/>
<polygon fill="black" stroke="black" points="809.57,-114.48 801.1,-120.84 811.69,-121.15 809.57,-114.48"/>
<text text-anchor="middle" x="824.48" y="-121.8" font-family="Times,serif" font-size="14.00">Ɛ</text>
</g>
</g>
</svg>
