<?xml version="1.0" encoding="UTF-8" standalone="no"?>
<!DOCTYPE svg PUBLIC "-//W3C//DTD SVG 1.1//EN"
 "http://www.w3.org/Graphics/SVG/1.1/DTD/svg11.dtd">
<!-- Generated by graphviz version 2.42.3 (0)
 -->
<!-- Title: %3 Pages: 1 -->
<svg width="1375pt" height="156pt"
 viewBox="0.00 0.00 1374.98 155.86" xmlns="http://www.w3.org/2000/svg" xmlns:xlink="http://www.w3.org/1999/xlink">
<g id="graph0" class="graph" transform="scale(1 1) rotate(0) translate(4 151.86)">
<title>%3</title>
<polygon fill="white" stroke="transparent" points="-4,4 -4,-151.86 1370.98,-151.86 1370.98,4 -4,4"/>
<!-- 16 -->
<g id="node1" class="node">
<title>16</title>
<ellipse fill="none" stroke="black" cx="1343.48" cy="-43.86" rx="19.5" ry="19.5"/>
<ellipse fill="none" stroke="black" cx="1343.48" cy="-43.86" rx="23.5" ry="23.5"/>
<text text-anchor="middle" x="1343.48" y="-40.16" font-family="Times,serif" font-size="14.00">16</text>
</g>
<!-- START -->
<g id="node2" class="node">
<title>START</title>
</g>
<!-- 0 -->
<g id="node3" class="node">
<title>0</title>
<ellipse fill="none" stroke="black" cx="56" cy="-43.86" rx="18" ry="18"/>
<text text-anchor="middle" x="56" y="-40.16" font-family="Times,serif" font-size="14.00">0</text>
</g>
<!-- START&#45;&gt;0 -->
<g id="edge1" class="edge">
<title>START&#45;&gt;0</title>
<path fill="none" stroke="black" d="M1.15,-43.86C2.67,-43.86 15.1,-43.86 27.63,-43.86"/>
<polygon fill="black" stroke="black" points="27.94,-47.36 37.94,-43.86 27.94,-40.36 27.94,-47.36"/>
</g>
<!-- 1 -->
<g id="node4" class="node">
<title>1</title>
<ellipse fill="none" stroke="black" cx="135" cy="-43.86" rx="18" ry="18"/>
<text text-anchor="middle" x="135" y="-40.16" font-family="Times,serif" font-size="14.00">1</text>
</g>
<!-- 0&#45;&gt;1 -->
<g id="edge2" class="edge">
<title>0&#45;&gt;1</title>
<path fill="none" stroke="black" d="M74.09,-43.86C83.66,-43.86 95.82,-43.86 106.68,-43.86"/>
<polygon fill="black" stroke="black" points="106.96,-47.36 116.96,-43.86 106.96,-40.36 106.96,-47.36"/>
<text text-anchor="middle" x="95.5" y="-47.66" font-family="Times,serif" font-size="14.00">a</text>
</g>
<!-- 2 -->
<g id="node5" class="node">
<title>2</title>
<ellipse fill="none" stroke="black" cx="214" cy="-43.86" rx="18" ry="18"/>
<text text-anchor="middle" x="214" y="-40.16" font-family="Times,serif" font-size="14.00">2</text>
</g>
<!-- 1&#45;&gt;2 -->
<g id="edge3" class="edge">
<title>1&#45;&gt;2</title>
<path fill="none" stroke="black" d="M153.09,-43.86C162.66,-43.86 174.82,-43.86 185.68,-43.86"/>
<polygon fill="black" stroke="black" points="185.96,-47.36 195.96,-43.86 185.96,-40.36 185.96,-47.36"/>
<text text-anchor="middle" x="174.5" y="-47.66" font-family="Times,serif" font-size="14.00">b</text>
</g>
<!-- 3 -->
<g id="node6" class="node">
<title>3</title>
<ellipse fill="none" stroke="black" cx="293" cy="-43.86" rx="18" ry="18"/>
<text text-anchor="middle" x="293" y="-40.16" font-family="Times,serif" font-size="14.00">3</text>
</g>
<!-- 2&#45;&gt;3 -->
<g id="edge4" class="edge">
<title>2&#45;&gt;3</title>
<path fill="none" stroke="black" d="M232.09,-43.86C241.66,-43.86 253.82,-43.86 264.68,-43.86"/>
<polygon fill="black" stroke="black" points="264.96,-47.36 274.96,-43.86 264.96,-40.36 264.96,-47.36"/>
<text text-anchor="middle" x="253.5" y="-47.66" font-family="Times,serif" font-size="14.00">b</text>
</g>
<!-- 4 -->
<g id="node7" class="node">
<title>4</title>
<ellipse fill="none" stroke="black" cx="372" cy="-78.86" rx="18" ry="18"/>
<text text-anchor="middle" x="372" y="-75.16" font-family="Times,serif" font-size="14.00">4</text>
</g>
<!-- 3&#45;&gt;4 -->
<g id="edge5" class="edge">
<title>3&#45;&gt;4</title>
<path fill="none" stroke="black" d="M309.58,-50.94C320.12,-55.73 334.27,-62.16 346.33,-67.65"/>
<polygon fill="black" stroke="black" points="344.89,-70.84 355.44,-71.79 347.79,-64.46 344.89,-70.84"/>
<text text-anchor="middle" x="332.5" y="-65.66" font-family="Times,serif" font-size="14.00">Ɛ</text>
</g>
<!-- 7 -->
<g id="node8" class="node">
<title>7</title>
<ellipse fill="none" stroke="black" cx="609" cy="-43.86" rx="18" ry="18"/>
<text text-anchor="middle" x="609" y="-40.16" font-family="Times,serif" font-size="14.00">7</text>
</g>
<!-- 3&#45;&gt;7 -->
<g id="edge6" class="edge">
<title>3&#45;&gt;7</title>
<path fill="none" stroke="black" d="M310.32,-38.44C325.77,-33.8 349.7,-27.86 371,-27.86 371,-27.86 371,-27.86 531,-27.86 548.14,-27.86 566.98,-31.71 581.74,-35.63"/>
<polygon fill="black" stroke="black" points="581.11,-39.09 591.68,-38.44 583.01,-32.35 581.11,-39.09"/>
<text text-anchor="middle" x="451" y="-31.66" font-family="Times,serif" font-size="14.00">Ɛ</text>
</g>
<!-- 5 -->
<g id="node9" class="node">
<title>5</title>
<ellipse fill="none" stroke="black" cx="451" cy="-129.86" rx="18" ry="18"/>
<text text-anchor="middle" x="451" y="-126.16" font-family="Times,serif" font-size="14.00">5</text>
</g>
<!-- 4&#45;&gt;5 -->
<g id="edge7" class="edge">
<title>4&#45;&gt;5</title>
<path fill="none" stroke="black" d="M387.48,-88.45C398.67,-95.86 414.36,-106.25 427.22,-114.77"/>
<polygon fill="black" stroke="black" points="425.31,-117.71 435.58,-120.31 429.18,-111.87 425.31,-117.71"/>
<text text-anchor="middle" x="411.5" y="-109.66" font-family="Times,serif" font-size="14.00">a</text>
</g>
<!-- 8 -->
<g id="node11" class="node">
<title>8</title>
<ellipse fill="none" stroke="black" cx="688" cy="-73.86" rx="18" ry="18"/>
<text text-anchor="middle" x="688" y="-70.16" font-family="Times,serif" font-size="14.00">8</text>
</g>
<!-- 7&#45;&gt;8 -->
<g id="edge11" class="edge">
<title>7&#45;&gt;8</title>
<path fill="none" stroke="black" d="M625.95,-50.08C636.28,-54.1 649.94,-59.42 661.73,-64.01"/>
<polygon fill="black" stroke="black" points="660.48,-67.28 671.07,-67.65 663.02,-60.76 660.48,-67.28"/>
<text text-anchor="middle" x="648.5" y="-62.66" font-family="Times,serif" font-size="14.00">Ɛ</text>
</g>
<!-- 10 -->
<g id="node12" class="node">
<title>10</title>
<ellipse fill="none" stroke="black" cx="847.5" cy="-43.86" rx="19.5" ry="19.5"/>
<text text-anchor="middle" x="847.5" y="-40.16" font-family="Times,serif" font-size="14.00">10</text>
</g>
<!-- 7&#45;&gt;10 -->
<g id="edge12" class="edge">
<title>7&#45;&gt;10</title>
<path fill="none" stroke="black" d="M627.01,-43.86C667.07,-43.86 767.73,-43.86 817.59,-43.86"/>
<polygon fill="black" stroke="black" points="817.7,-47.36 827.7,-43.86 817.7,-40.36 817.7,-47.36"/>
<text text-anchor="middle" x="727.5" y="-47.66" font-family="Times,serif" font-size="14.00">Ɛ</text>
</g>
<!-- 6 -->
<g id="node10" class="node">
<title>6</title>
<ellipse fill="none" stroke="black" cx="530" cy="-78.86" rx="18" ry="18"/>
<text text-anchor="middle" x="530" y="-75.16" font-family="Times,serif" font-size="14.00">6</text>
</g>
<!-- 5&#45;&gt;6 -->
<g id="edge8" class="edge">
<title>5&#45;&gt;6</title>
<path fill="none" stroke="black" d="M466.48,-120.27C477.67,-112.86 493.36,-102.47 506.22,-93.95"/>
<polygon fill="black" stroke="black" points="508.18,-96.85 514.58,-88.41 504.31,-91.01 508.18,-96.85"/>
<text text-anchor="middle" x="490.5" y="-109.66" font-family="Times,serif" font-size="14.00">b</text>
</g>
<!-- 6&#45;&gt;4 -->
<g id="edge9" class="edge">
<title>6&#45;&gt;4</title>
<path fill="none" stroke="black" d="M511.63,-78.86C484.64,-78.86 432.41,-78.86 400.33,-78.86"/>
<polygon fill="black" stroke="black" points="400.29,-75.36 390.29,-78.86 400.29,-82.36 400.29,-75.36"/>
<text text-anchor="middle" x="451" y="-82.66" font-family="Times,serif" font-size="14.00">Ɛ</text>
</g>
<!-- 6&#45;&gt;7 -->
<g id="edge10" class="edge">
<title>6&#45;&gt;7</title>
<path fill="none" stroke="black" d="M546.58,-71.78C557.12,-66.99 571.27,-60.56 583.33,-55.08"/>
<polygon fill="black" stroke="black" points="584.79,-58.26 592.44,-50.93 581.89,-51.88 584.79,-58.26"/>
<text text-anchor="middle" x="569.5" y="-65.66" font-family="Times,serif" font-size="14.00">Ɛ</text>
</g>
<!-- 9 -->
<g id="node13" class="node">
<title>9</title>
<ellipse fill="none" stroke="black" cx="767" cy="-73.86" rx="18" ry="18"/>
<text text-anchor="middle" x="767" y="-70.16" font-family="Times,serif" font-size="14.00">9</text>
</g>
<!-- 8&#45;&gt;9 -->
<g id="edge13" class="edge">
<title>8&#45;&gt;9</title>
<path fill="none" stroke="black" d="M704.37,-81.69C712.23,-84.81 722.02,-87.36 731,-85.86 734.13,-85.34 737.36,-84.57 740.52,-83.67"/>
<polygon fill="black" stroke="black" points="741.84,-86.93 750.26,-80.49 739.67,-80.27 741.84,-86.93"/>
<text text-anchor="middle" x="727.5" y="-89.66" font-family="Times,serif" font-size="14.00">a</text>
</g>
<!-- 11 -->
<g id="node14" class="node">
<title>11</title>
<ellipse fill="none" stroke="black" cx="929.49" cy="-74.86" rx="19.5" ry="19.5"/>
<text text-anchor="middle" x="929.49" y="-71.16" font-family="Times,serif" font-size="14.00">11</text>
</g>
<!-- 10&#45;&gt;11 -->
<g id="edge16" class="edge">
<title>10&#45;&gt;11</title>
<path fill="none" stroke="black" d="M865.86,-50.59C876.34,-54.65 889.92,-59.91 901.75,-64.5"/>
<polygon fill="black" stroke="black" points="900.58,-67.8 911.17,-68.15 903.11,-61.27 900.58,-67.8"/>
<text text-anchor="middle" x="888.5" y="-63.66" font-family="Times,serif" font-size="14.00">Ɛ</text>
</g>
<!-- 13 -->
<g id="node15" class="node">
<title>13</title>
<ellipse fill="none" stroke="black" cx="1093.49" cy="-43.86" rx="19.5" ry="19.5"/>
<text text-anchor="middle" x="1093.49" y="-40.16" font-family="Times,serif" font-size="14.00">13</text>
</g>
<!-- 10&#45;&gt;13 -->
<g id="edge17" class="edge">
<title>10&#45;&gt;13</title>
<path fill="none" stroke="black" d="M867.24,-43.86C909.55,-43.86 1012.73,-43.86 1063.42,-43.86"/>
<polygon fill="black" stroke="black" points="1063.68,-47.36 1073.68,-43.86 1063.68,-40.36 1063.68,-47.36"/>
<text text-anchor="middle" x="970.49" y="-47.66" font-family="Times,serif" font-size="14.00">Ɛ</text>
</g>
<!-- 9&#45;&gt;8 -->
<g id="edge14" class="edge">
<title>9&#45;&gt;8</title>
<path fill="none" stroke="black" d="M749.37,-69.84C743.59,-68.63 737.04,-67.46 731,-66.86 726.02,-66.37 720.74,-66.62 715.66,-67.27"/>
<polygon fill="black" stroke="black" points="714.93,-63.84 705.69,-69.02 716.15,-70.74 714.93,-63.84"/>
<text text-anchor="middle" x="727.5" y="-70.66" font-family="Times,serif" font-size="14.00">Ɛ</text>
</g>
<!-- 9&#45;&gt;10 -->
<g id="edge15" class="edge">
<title>9&#45;&gt;10</title>
<path fill="none" stroke="black" d="M784.26,-67.64C794.44,-63.76 807.8,-58.65 819.52,-54.17"/>
<polygon fill="black" stroke="black" points="820.8,-57.43 828.89,-50.59 818.3,-50.89 820.8,-57.43"/>
<text text-anchor="middle" x="806.5" y="-62.66" font-family="Times,serif" font-size="14.00">Ɛ</text>
</g>
<!-- 12 -->
<g id="node16" class="node">
<title>12</title>
<ellipse fill="none" stroke="black" cx="1011.49" cy="-74.86" rx="19.5" ry="19.5"/>
<text text-anchor="middle" x="1011.49" y="-71.16" font-family="Times,serif" font-size="14.00">12</text>
</g>
<!-- 11&#45;&gt;12 -->
<g id="edge18" class="edge">
<title>11&#45;&gt;12</title>
<path fill="none" stroke="black" d="M948.08,-81.29C954,-83.16 960.71,-84.93 966.99,-85.86 972.35,-86.65 978,-86.2 983.39,-85.13"/>
<polygon fill="black" stroke="black" points="984.55,-88.44 993.3,-82.45 982.73,-81.68 984.55,-88.44"/>
<text text-anchor="middle" x="970.49" y="-89.66" font-family="Times,serif" font-size="14.00">b</text>
</g>
<!-- 13&#45;&gt;16 -->
<g id="edge22" class="edge">
<title>13&#45;&gt;16</title>
<path fill="none" stroke="black" d="M1112.55,-48.63C1118.39,-49.95 1124.92,-51.2 1130.99,-51.86 1134.08,-52.2 1134.88,-51.87 1137.99,-51.86 1210.87,-51.64 1229.38,-57.31 1301.98,-50.86 1304.68,-50.62 1307.48,-50.3 1310.28,-49.92"/>
<polygon fill="black" stroke="black" points="1310.93,-53.36 1320.28,-48.38 1309.87,-46.44 1310.93,-53.36"/>
<text text-anchor="middle" x="1216.48" y="-56.66" font-family="Times,serif" font-size="14.00">Ɛ</text>
</g>
<!-- 14 -->
<g id="node17" class="node">
<title>14</title>
<ellipse fill="none" stroke="black" cx="1175.48" cy="-19.86" rx="19.5" ry="19.5"/>
<text text-anchor="middle" x="1175.48" y="-16.16" font-family="Times,serif" font-size="14.00">14</text>
</g>
<!-- 13&#45;&gt;14 -->
<g id="edge21" class="edge">
<title>13&#45;&gt;14</title>
<path fill="none" stroke="black" d="M1112.64,-38.41C1122.73,-35.39 1135.51,-31.55 1146.82,-28.16"/>
<polygon fill="black" stroke="black" points="1148.11,-31.43 1156.68,-25.2 1146.1,-24.72 1148.11,-31.43"/>
<text text-anchor="middle" x="1134.49" y="-36.66" font-family="Times,serif" font-size="14.00">Ɛ</text>
</g>
<!-- 12&#45;&gt;11 -->
<g id="edge19" class="edge">
<title>12&#45;&gt;11</title>
<path fill="none" stroke="black" d="M992.43,-70.09C986.59,-68.77 980.06,-67.52 973.99,-66.86 968.92,-66.31 963.54,-66.59 958.37,-67.3"/>
<polygon fill="black" stroke="black" points="957.35,-63.93 948.18,-69.24 958.66,-70.8 957.35,-63.93"/>
<text text-anchor="middle" x="970.49" y="-70.66" font-family="Times,serif" font-size="14.00">Ɛ</text>
</g>
<!-- 12&#45;&gt;13 -->
<g id="edge20" class="edge">
<title>12&#45;&gt;13</title>
<path fill="none" stroke="black" d="M1029.85,-68.13C1040.33,-64.07 1053.91,-58.81 1065.74,-54.23"/>
<polygon fill="black" stroke="black" points="1067.1,-57.45 1075.16,-50.57 1064.57,-50.92 1067.1,-57.45"/>
<text text-anchor="middle" x="1052.49" y="-63.66" font-family="Times,serif" font-size="14.00">Ɛ</text>
</g>
<!-- 15 -->
<g id="node18" class="node">
<title>15</title>
<ellipse fill="none" stroke="black" cx="1257.48" cy="-19.86" rx="19.5" ry="19.5"/>
<text text-anchor="middle" x="1257.48" y="-16.16" font-family="Times,serif" font-size="14.00">15</text>
</g>
<!-- 14&#45;&gt;15 -->
<g id="edge23" class="edge">
<title>14&#45;&gt;15</title>
<path fill="none" stroke="black" d="M1195.04,-19.86C1204.66,-19.86 1216.64,-19.86 1227.45,-19.86"/>
<polygon fill="black" stroke="black" points="1227.75,-23.36 1237.75,-19.86 1227.75,-16.36 1227.75,-23.36"/>
<text text-anchor="middle" x="1216.48" y="-23.66" font-family="Times,serif" font-size="14.00">c</text>
</g>
<!-- 15&#45;&gt;16 -->
<g id="edge25" class="edge">
<title>15&#45;&gt;16</title>
<path fill="none" stroke="black" d="M1276.71,-25.07C1286.71,-27.93 1299.39,-31.55 1310.95,-34.85"/>
<polygon fill="black" stroke="black" points="1310.14,-38.26 1320.71,-37.64 1312.06,-31.53 1310.14,-38.26"/>
<text text-anchor="middle" x="1298.48" y="-35.66" font-family="Times,serif" font-size="14.00">Ɛ</text>
</g>
<!-- 15&#45;&gt;14 -->
<g id="edge24" class="edge">
<title>15&#45;&gt;14</title>
<path fill="none" stroke="black" d="M1240.79,-9.59C1234.58,-6.09 1227.2,-2.63 1219.98,-0.86 1213.47,0.73 1206.7,-0.61 1200.5,-3.17"/>
<polygon fill="black" stroke="black" points="1198.57,-0.24 1191.34,-7.98 1201.82,-6.43 1198.57,-0.24"/>
<text text-anchor="middle" x="1216.48" y="-4.66" font-family="Times,serif" font-size="14.00">Ɛ</text>
</g>
</g>
</svg>
