<?xml version="1.0" encoding="UTF-8" standalone="no"?>
<!DOCTYPE svg PUBLIC "-//W3C//DTD SVG 1.1//EN"
 "http://www.w3.org/Graphics/SVG/1.1/DTD/svg11.dtd">
<!-- Generated by graphviz version 2.42.3 (0)
 -->
<!-- Title: %3 Pages: 1 -->
<svg width="131pt" height="159pt"
 viewBox="0.00 0.00 130.69 158.69" xmlns="http://www.w3.org/2000/svg" xmlns:xlink="http://www.w3.org/1999/xlink">
<g id="graph0" class="graph" transform="scale(1 1) rotate(0) translate(4 154.69)">
<title>%3</title>
<polygon fill="white" stroke="transparent" points="-4,4 -4,-154.69 126.69,-154.69 126.69,4 -4,4"/>
<!-- START -->
<g id="node1" class="node">
<title>START</title>
</g>
<!-- A, B, C -->
<g id="node2" class="node">
<title>A, B, C</title>
<ellipse fill="none" stroke="black" cx="80.35" cy="-42.35" rx="38.21" ry="38.21"/>
<ellipse fill="none" stroke="black" cx="80.35" cy="-42.35" rx="42.19" ry="42.19"/>
<text text-anchor="middle" x="80.35" y="-38.65" font-family="Times,serif" font-size="14.00">A, B, C</text>
</g>
<!-- START&#45;&gt;A, B, C -->
<g id="edge1" class="edge">
<title>START&#45;&gt;A, B, C</title>
<path fill="none" stroke="black" d="M1.06,-42.35C1.97,-42.35 13.73,-42.35 27.86,-42.35"/>
<polygon fill="black" stroke="black" points="27.93,-45.85 37.93,-42.35 27.93,-38.85 27.93,-45.85"/>
</g>
<!-- A, B, C&#45;&gt;A, B, C -->
<g id="edge2" class="edge">
<title>A, B, C&#45;&gt;A, B, C</title>
<path fill="none" stroke="black" d="M74.8,-84.37C75.19,-94.85 77.04,-102.69 80.35,-102.69 82.47,-102.69 83.99,-99.48 84.91,-94.41"/>
<polygon fill="black" stroke="black" points="88.4,-94.66 85.89,-84.37 81.44,-93.98 88.4,-94.66"/>
<text text-anchor="middle" x="80.35" y="-106.49" font-family="Times,serif" font-size="14.00">a</text>
</g>
<!-- A, B, C&#45;&gt;A, B, C -->
<g id="edge3" class="edge">
<title>A, B, C&#45;&gt;A, B, C</title>
<path fill="none" stroke="black" d="M69.37,-83.46C68.02,-103.24 71.67,-120.69 80.35,-120.69 87.46,-120.69 91.2,-108.95 91.57,-93.81"/>
<polygon fill="black" stroke="black" points="95.06,-93.37 91.32,-83.46 88.06,-93.54 95.06,-93.37"/>
<text text-anchor="middle" x="80.35" y="-124.49" font-family="Times,serif" font-size="14.00">b</text>
</g>
</g>
</svg>
