<?xml version="1.0" encoding="UTF-8" standalone="no"?>
<!DOCTYPE svg PUBLIC "-//W3C//DTD SVG 1.1//EN"
 "http://www.w3.org/Graphics/SVG/1.1/DTD/svg11.dtd">
<!-- Generated by graphviz version 2.42.3 (0)
 -->
<!-- Title: %3 Pages: 1 -->
<svg width="264pt" height="124pt"
 viewBox="0.00 0.00 264.00 124.00" xmlns="http://www.w3.org/2000/svg" xmlns:xlink="http://www.w3.org/1999/xlink">
<g id="graph0" class="graph" transform="scale(1 1) rotate(0) translate(4 120)">
<title>%3</title>
<polygon fill="white" stroke="transparent" points="-4,4 -4,-120 260,-120 260,4 -4,4"/>
<!-- START -->
<g id="node1" class="node">
<title>START</title>
</g>
<!-- A -->
<g id="node2" class="node">
<title>A</title>
<ellipse fill="none" stroke="black" cx="60" cy="-22" rx="18" ry="18"/>
<ellipse fill="none" stroke="black" cx="60" cy="-22" rx="22" ry="22"/>
<text text-anchor="middle" x="60" y="-18.3" font-family="Times,serif" font-size="14.00">A</text>
</g>
<!-- START&#45;&gt;A -->
<g id="edge1" class="edge">
<title>START&#45;&gt;A</title>
<path fill="none" stroke="black" d="M1.17,-22C2.72,-22 14.89,-22 27.67,-22"/>
<polygon fill="black" stroke="black" points="27.86,-25.5 37.86,-22 27.86,-18.5 27.86,-25.5"/>
</g>
<!-- B -->
<g id="node3" class="node">
<title>B</title>
<ellipse fill="none" stroke="black" cx="147" cy="-61" rx="18" ry="18"/>
<ellipse fill="none" stroke="black" cx="147" cy="-61" rx="22" ry="22"/>
<text text-anchor="middle" x="147" y="-57.3" font-family="Times,serif" font-size="14.00">B</text>
</g>
<!-- A&#45;&gt;B -->
<g id="edge2" class="edge">
<title>A&#45;&gt;B</title>
<path fill="none" stroke="black" d="M80.29,-30.85C91.26,-35.89 105.22,-42.29 117.45,-47.9"/>
<polygon fill="black" stroke="black" points="116.24,-51.2 126.79,-52.19 119.16,-44.83 116.24,-51.2"/>
<text text-anchor="middle" x="103.5" y="-45.8" font-family="Times,serif" font-size="14.00">a</text>
</g>
<!-- C -->
<g id="node4" class="node">
<title>C</title>
<ellipse fill="none" stroke="black" cx="234" cy="-39" rx="18" ry="18"/>
<ellipse fill="none" stroke="black" cx="234" cy="-39" rx="22" ry="22"/>
<text text-anchor="middle" x="234" y="-35.3" font-family="Times,serif" font-size="14.00">C</text>
</g>
<!-- A&#45;&gt;C -->
<g id="edge5" class="edge">
<title>A&#45;&gt;C</title>
<path fill="none" stroke="black" d="M81.88,-17.66C103.76,-13.81 139.05,-9.57 169,-15 180.98,-17.17 193.64,-21.46 204.5,-25.81"/>
<polygon fill="black" stroke="black" points="203.33,-29.12 213.91,-29.78 206.05,-22.67 203.33,-29.12"/>
<text text-anchor="middle" x="147" y="-18.8" font-family="Times,serif" font-size="14.00">b</text>
</g>
<!-- B&#45;&gt;B -->
<g id="edge3" class="edge">
<title>B&#45;&gt;B</title>
<path fill="none" stroke="black" d="M139.32,-81.99C138.37,-92.09 140.93,-101 147,-101 150.89,-101 153.34,-97.34 154.35,-92.06"/>
<polygon fill="black" stroke="black" points="157.85,-92.1 154.68,-81.99 150.85,-91.87 157.85,-92.1"/>
<text text-anchor="middle" x="147" y="-104.8" font-family="Times,serif" font-size="14.00">a</text>
</g>
<!-- B&#45;&gt;C -->
<g id="edge6" class="edge">
<title>B&#45;&gt;C</title>
<path fill="none" stroke="black" d="M169.29,-59.39C177.14,-58.49 186.06,-57.11 194,-55 197.43,-54.09 200.96,-52.95 204.42,-51.7"/>
<polygon fill="black" stroke="black" points="205.87,-54.9 213.9,-47.99 203.31,-48.38 205.87,-54.9"/>
<text text-anchor="middle" x="190.5" y="-59.8" font-family="Times,serif" font-size="14.00">b</text>
</g>
<!-- C&#45;&gt;B -->
<g id="edge4" class="edge">
<title>C&#45;&gt;B</title>
<path fill="none" stroke="black" d="M211.64,-37.39C203.78,-37.34 194.88,-37.92 187,-40 183.01,-41.05 178.99,-42.58 175.11,-44.35"/>
<polygon fill="black" stroke="black" points="173.2,-41.39 165.9,-49.07 176.4,-47.62 173.2,-41.39"/>
<text text-anchor="middle" x="190.5" y="-43.8" font-family="Times,serif" font-size="14.00">a</text>
</g>
<!-- C&#45;&gt;C -->
<g id="edge7" class="edge">
<title>C&#45;&gt;C</title>
<path fill="none" stroke="black" d="M226.32,-59.99C225.37,-70.09 227.93,-79 234,-79 237.89,-79 240.34,-75.34 241.35,-70.06"/>
<polygon fill="black" stroke="black" points="244.85,-70.1 241.68,-59.99 237.85,-69.87 244.85,-70.1"/>
<text text-anchor="middle" x="234" y="-82.8" font-family="Times,serif" font-size="14.00">b</text>
</g>
</g>
</svg>
