<?xml version="1.0" encoding="UTF-8" standalone="no"?>
<!DOCTYPE svg PUBLIC "-//W3C//DTD SVG 1.1//EN"
 "http://www.w3.org/Graphics/SVG/1.1/DTD/svg11.dtd">
<!-- Generated by graphviz version 2.42.3 (0)
 -->
<!-- Title: %3 Pages: 1 -->
<svg width="588pt" height="285pt"
 viewBox="0.00 0.00 588.00 285.00" xmlns="http://www.w3.org/2000/svg" xmlns:xlink="http://www.w3.org/1999/xlink">
<g id="graph0" class="graph" transform="scale(1 1) rotate(0) translate(4 281)">
<title>%3</title>
<polygon fill="white" stroke="transparent" points="-4,4 -4,-281 584,-281 584,4 -4,4"/>
<!-- E -->
<g id="node1" class="node">
<title>E</title>
<ellipse fill="none" stroke="black" cx="60" cy="-23" rx="18" ry="18"/>
<ellipse fill="none" stroke="black" cx="60" cy="-23" rx="22" ry="22"/>
<text text-anchor="middle" x="60" y="-19.3" font-family="Times,serif" font-size="14.00">E</text>
</g>
<!-- E&#45;&gt;E -->
<g id="edge6" class="edge">
<title>E&#45;&gt;E</title>
<path fill="none" stroke="black" d="M52.68,-43.99C51.78,-54.09 54.22,-63 60,-63 63.7,-63 66.04,-59.34 67,-54.06"/>
<polygon fill="black" stroke="black" points="70.5,-54.1 67.32,-43.99 63.5,-53.87 70.5,-54.1"/>
<text text-anchor="middle" x="60" y="-66.8" font-family="Times,serif" font-size="14.00">a</text>
</g>
<!-- F -->
<g id="node2" class="node">
<title>F</title>
<ellipse fill="none" stroke="black" cx="147" cy="-69" rx="18" ry="18"/>
<ellipse fill="none" stroke="black" cx="147" cy="-69" rx="22" ry="22"/>
<text text-anchor="middle" x="147" y="-65.3" font-family="Times,serif" font-size="14.00">F</text>
</g>
<!-- E&#45;&gt;F -->
<g id="edge14" class="edge">
<title>E&#45;&gt;F</title>
<path fill="none" stroke="black" d="M79.86,-33.21C91.09,-39.28 105.54,-47.1 118.07,-53.88"/>
<polygon fill="black" stroke="black" points="116.73,-57.14 127.19,-58.82 120.06,-50.98 116.73,-57.14"/>
<text text-anchor="middle" x="103.5" y="-51.8" font-family="Times,serif" font-size="14.00">b</text>
</g>
<!-- G -->
<g id="node3" class="node">
<title>G</title>
<ellipse fill="none" stroke="black" cx="234" cy="-131" rx="18" ry="18"/>
<ellipse fill="none" stroke="black" cx="234" cy="-131" rx="22" ry="22"/>
<text text-anchor="middle" x="234" y="-127.3" font-family="Times,serif" font-size="14.00">G</text>
</g>
<!-- F&#45;&gt;G -->
<g id="edge7" class="edge">
<title>F&#45;&gt;G</title>
<path fill="none" stroke="black" d="M165.2,-81.55C177.41,-90.45 194.01,-102.56 207.72,-112.56"/>
<polygon fill="black" stroke="black" points="205.68,-115.41 215.82,-118.47 209.81,-109.75 205.68,-115.41"/>
<text text-anchor="middle" x="190.5" y="-105.8" font-family="Times,serif" font-size="14.00">a</text>
</g>
<!-- H -->
<g id="node4" class="node">
<title>H</title>
<ellipse fill="none" stroke="black" cx="400" cy="-161" rx="18" ry="18"/>
<ellipse fill="none" stroke="black" cx="400" cy="-161" rx="22" ry="22"/>
<text text-anchor="middle" x="400" y="-157.3" font-family="Times,serif" font-size="14.00">H</text>
</g>
<!-- F&#45;&gt;H -->
<g id="edge15" class="edge">
<title>F&#45;&gt;H</title>
<path fill="none" stroke="black" d="M169.06,-69.32C204.93,-70.62 279.41,-76.71 335,-104 351.33,-112.01 366.65,-125.37 378.21,-137.14"/>
<polygon fill="black" stroke="black" points="375.82,-139.71 385.23,-144.57 380.91,-134.9 375.82,-139.71"/>
<text text-anchor="middle" x="277.5" y="-88.8" font-family="Times,serif" font-size="14.00">b</text>
</g>
<!-- C -->
<g id="node8" class="node">
<title>C</title>
<ellipse fill="none" stroke="black" cx="562" cy="-102" rx="18" ry="18"/>
<text text-anchor="middle" x="562" y="-98.3" font-family="Times,serif" font-size="14.00">C</text>
</g>
<!-- G&#45;&gt;C -->
<g id="edge8" class="edge">
<title>G&#45;&gt;C</title>
<path fill="none" stroke="black" d="M246.94,-149.23C264.5,-175.01 297.21,-219 316,-219 316,-219 316,-219 484,-219 526.53,-219 546.89,-164.38 555.52,-129.78"/>
<polygon fill="black" stroke="black" points="558.99,-130.3 557.83,-119.77 552.17,-128.73 558.99,-130.3"/>
<text text-anchor="middle" x="400" y="-222.8" font-family="Times,serif" font-size="14.00">a</text>
</g>
<!-- D -->
<g id="node9" class="node">
<title>D</title>
<ellipse fill="none" stroke="black" cx="317" cy="-131" rx="18" ry="18"/>
<text text-anchor="middle" x="317" y="-127.3" font-family="Times,serif" font-size="14.00">D</text>
</g>
<!-- G&#45;&gt;D -->
<g id="edge16" class="edge">
<title>G&#45;&gt;D</title>
<path fill="none" stroke="black" d="M254.02,-120.84C262.22,-117.6 271.98,-115.26 281,-117 284.28,-117.63 287.64,-118.57 290.92,-119.66"/>
<polygon fill="black" stroke="black" points="289.77,-122.97 300.36,-123.27 292.27,-116.43 289.77,-122.97"/>
<text text-anchor="middle" x="277.5" y="-120.8" font-family="Times,serif" font-size="14.00">b</text>
</g>
<!-- A -->
<g id="node6" class="node">
<title>A</title>
<ellipse fill="none" stroke="black" cx="60" cy="-226" rx="18" ry="18"/>
<text text-anchor="middle" x="60" y="-222.3" font-family="Times,serif" font-size="14.00">A</text>
</g>
<!-- H&#45;&gt;A -->
<g id="edge17" class="edge">
<title>H&#45;&gt;A</title>
<path fill="none" stroke="black" d="M377.92,-165.05C319.03,-176.38 152.81,-208.34 87.67,-220.87"/>
<polygon fill="black" stroke="black" points="86.92,-217.45 77.76,-222.78 88.24,-224.33 86.92,-217.45"/>
<text text-anchor="middle" x="234" y="-199.8" font-family="Times,serif" font-size="14.00">b</text>
</g>
<!-- B -->
<g id="node7" class="node">
<title>B</title>
<ellipse fill="none" stroke="black" cx="483" cy="-141" rx="18" ry="18"/>
<text text-anchor="middle" x="483" y="-137.3" font-family="Times,serif" font-size="14.00">B</text>
</g>
<!-- H&#45;&gt;B -->
<g id="edge9" class="edge">
<title>H&#45;&gt;B</title>
<path fill="none" stroke="black" d="M421.44,-155.95C431.74,-153.41 444.35,-150.3 455.4,-147.57"/>
<polygon fill="black" stroke="black" points="456.51,-150.9 465.38,-145.1 454.83,-144.1 456.51,-150.9"/>
<text text-anchor="middle" x="443.5" y="-154.8" font-family="Times,serif" font-size="14.00">a</text>
</g>
<!-- START -->
<g id="node5" class="node">
<title>START</title>
</g>
<!-- START&#45;&gt;A -->
<g id="edge1" class="edge">
<title>START&#45;&gt;A</title>
<path fill="none" stroke="black" d="M1.17,-226C2.89,-226 17.68,-226 31.87,-226"/>
<polygon fill="black" stroke="black" points="31.9,-229.5 41.9,-226 31.9,-222.5 31.9,-229.5"/>
</g>
<!-- A&#45;&gt;A -->
<g id="edge10" class="edge">
<title>A&#45;&gt;A</title>
<path fill="none" stroke="black" d="M52.97,-242.66C51.41,-252.62 53.75,-262 60,-262 64,-262 66.4,-258.15 67.2,-252.77"/>
<polygon fill="black" stroke="black" points="70.7,-252.6 67.03,-242.66 63.7,-252.72 70.7,-252.6"/>
<text text-anchor="middle" x="60" y="-265.8" font-family="Times,serif" font-size="14.00">b</text>
</g>
<!-- A&#45;&gt;B -->
<g id="edge2" class="edge">
<title>A&#45;&gt;B</title>
<path fill="none" stroke="black" d="M74.97,-236.03C91.22,-246.68 119.24,-262 146,-262 146,-262 146,-262 401,-262 445.75,-262 467.34,-204.14 476.41,-168.44"/>
<polygon fill="black" stroke="black" points="479.84,-169.13 478.73,-158.59 473.03,-167.52 479.84,-169.13"/>
<text text-anchor="middle" x="277.5" y="-265.8" font-family="Times,serif" font-size="14.00">a</text>
</g>
<!-- B&#45;&gt;C -->
<g id="edge3" class="edge">
<title>B&#45;&gt;C</title>
<path fill="none" stroke="black" d="M499.58,-133.11C510.19,-127.73 524.45,-120.51 536.56,-114.38"/>
<polygon fill="black" stroke="black" points="538.36,-117.39 545.7,-109.75 535.2,-111.14 538.36,-117.39"/>
<text text-anchor="middle" x="522.5" y="-125.8" font-family="Times,serif" font-size="14.00">a</text>
</g>
<!-- B&#45;&gt;D -->
<g id="edge11" class="edge">
<title>B&#45;&gt;D</title>
<path fill="none" stroke="black" d="M466.79,-132.33C454.99,-126.13 438.01,-118.32 422,-115 395.56,-109.52 364.98,-115.7 343.86,-121.91"/>
<polygon fill="black" stroke="black" points="342.8,-118.57 334.31,-124.9 344.9,-125.25 342.8,-118.57"/>
<text text-anchor="middle" x="400" y="-118.8" font-family="Times,serif" font-size="14.00">b</text>
</g>
<!-- C&#45;&gt;E -->
<g id="edge4" class="edge">
<title>C&#45;&gt;E</title>
<path fill="none" stroke="black" d="M556.56,-84.7C547.92,-55.6 525.93,0 484,0 146,0 146,0 146,0 126.88,0 106.16,-5.49 89.96,-11.1"/>
<polygon fill="black" stroke="black" points="88.7,-7.84 80.52,-14.57 91.11,-14.41 88.7,-7.84"/>
<text text-anchor="middle" x="317" y="-3.8" font-family="Times,serif" font-size="14.00">a</text>
</g>
<!-- C&#45;&gt;F -->
<g id="edge12" class="edge">
<title>C&#45;&gt;F</title>
<path fill="none" stroke="black" d="M551.15,-87.42C538.06,-69.94 513.14,-43 484,-43 233,-43 233,-43 233,-43 213.58,-43 192.7,-49.29 176.5,-55.68"/>
<polygon fill="black" stroke="black" points="174.95,-52.53 167.07,-59.61 177.65,-58.99 174.95,-52.53"/>
<text text-anchor="middle" x="356.5" y="-46.8" font-family="Times,serif" font-size="14.00">b</text>
</g>
<!-- D&#45;&gt;G -->
<g id="edge5" class="edge">
<title>D&#45;&gt;G</title>
<path fill="none" stroke="black" d="M298.96,-133.93C293.27,-134.77 286.88,-135.58 281,-136 276.15,-136.34 271.02,-136.25 266.01,-135.9"/>
<polygon fill="black" stroke="black" points="266.34,-132.41 256.04,-134.88 265.63,-139.38 266.34,-132.41"/>
<text text-anchor="middle" x="277.5" y="-139.8" font-family="Times,serif" font-size="14.00">a</text>
</g>
<!-- D&#45;&gt;H -->
<g id="edge13" class="edge">
<title>D&#45;&gt;H</title>
<path fill="none" stroke="black" d="M334,-136.93C344.09,-140.66 357.42,-145.6 369.38,-150.03"/>
<polygon fill="black" stroke="black" points="368.42,-153.41 379.01,-153.6 370.85,-146.84 368.42,-153.41"/>
<text text-anchor="middle" x="356.5" y="-149.8" font-family="Times,serif" font-size="14.00">b</text>
</g>
</g>
</svg>
